<mxfile host="Electron" modified="2024-05-17T14:17:47.177Z" agent="Mozilla/5.0 (Windows NT 10.0; Win64; x64) AppleWebKit/537.36 (KHTML, like Gecko) draw.io/24.2.5 Chrome/120.0.6099.109 Electron/28.1.0 Safari/537.36" etag="EYNgjyVbXBcDuXv5rTFw" version="24.2.5" type="device">
  <diagram id="C5RBs43oDa-KdzZeNtuy" name="Page-1">
    <mxGraphModel dx="6209" dy="2365" grid="1" gridSize="10" guides="1" tooltips="1" connect="1" arrows="1" fold="1" page="1" pageScale="1" pageWidth="827" pageHeight="1169" math="0" shadow="0">
      <root>
        <mxCell id="WIyWlLk6GJQsqaUBKTNV-0" />
        <mxCell id="WIyWlLk6GJQsqaUBKTNV-1" parent="WIyWlLk6GJQsqaUBKTNV-0" />
        <mxCell id="epZmwYBo2XGwXkZfo943-4" style="edgeStyle=orthogonalEdgeStyle;rounded=0;orthogonalLoop=1;jettySize=auto;html=1;exitX=0;exitY=0.5;exitDx=0;exitDy=0;entryX=1;entryY=0.5;entryDx=0;entryDy=0;" parent="WIyWlLk6GJQsqaUBKTNV-1" source="JQclvMXNQ_sn5CxyNjuB-0" target="epZmwYBo2XGwXkZfo943-2" edge="1">
          <mxGeometry relative="1" as="geometry" />
        </mxCell>
        <mxCell id="JQclvMXNQ_sn5CxyNjuB-0" value="Project&#xa;" style="swimlane;fontStyle=0;align=center;verticalAlign=top;childLayout=stackLayout;horizontal=1;startSize=26;horizontalStack=0;resizeParent=1;resizeLast=0;collapsible=1;marginBottom=0;rounded=0;shadow=0;strokeWidth=1;" parent="WIyWlLk6GJQsqaUBKTNV-1" vertex="1">
          <mxGeometry x="-540" y="-525" width="105" height="90" as="geometry">
            <mxRectangle x="550" y="140" width="160" height="26" as="alternateBounds" />
          </mxGeometry>
        </mxCell>
        <mxCell id="JQclvMXNQ_sn5CxyNjuB-74" style="edgeStyle=orthogonalEdgeStyle;rounded=0;orthogonalLoop=1;jettySize=auto;html=1;exitX=1;exitY=0.5;exitDx=0;exitDy=0;entryX=0;entryY=0.5;entryDx=0;entryDy=0;" parent="WIyWlLk6GJQsqaUBKTNV-1" source="JQclvMXNQ_sn5CxyNjuB-4" target="JQclvMXNQ_sn5CxyNjuB-72" edge="1">
          <mxGeometry relative="1" as="geometry" />
        </mxCell>
        <mxCell id="epZmwYBo2XGwXkZfo943-7" style="edgeStyle=orthogonalEdgeStyle;rounded=0;orthogonalLoop=1;jettySize=auto;html=1;exitX=0.5;exitY=1;exitDx=0;exitDy=0;entryX=0.5;entryY=0;entryDx=0;entryDy=0;" parent="WIyWlLk6GJQsqaUBKTNV-1" source="JQclvMXNQ_sn5CxyNjuB-4" target="JQclvMXNQ_sn5CxyNjuB-8" edge="1">
          <mxGeometry relative="1" as="geometry" />
        </mxCell>
        <mxCell id="epZmwYBo2XGwXkZfo943-16" style="edgeStyle=orthogonalEdgeStyle;rounded=0;orthogonalLoop=1;jettySize=auto;html=1;exitX=0.5;exitY=0;exitDx=0;exitDy=0;entryX=0.5;entryY=1;entryDx=0;entryDy=0;" parent="WIyWlLk6GJQsqaUBKTNV-1" source="JQclvMXNQ_sn5CxyNjuB-4" target="epZmwYBo2XGwXkZfo943-5" edge="1">
          <mxGeometry relative="1" as="geometry" />
        </mxCell>
        <mxCell id="epZmwYBo2XGwXkZfo943-20" style="edgeStyle=orthogonalEdgeStyle;rounded=0;orthogonalLoop=1;jettySize=auto;html=1;exitX=0;exitY=0.5;exitDx=0;exitDy=0;entryX=1;entryY=0.5;entryDx=0;entryDy=0;" parent="WIyWlLk6GJQsqaUBKTNV-1" source="JQclvMXNQ_sn5CxyNjuB-4" target="epZmwYBo2XGwXkZfo943-19" edge="1">
          <mxGeometry relative="1" as="geometry" />
        </mxCell>
        <mxCell id="JQclvMXNQ_sn5CxyNjuB-4" value="Product : Tree" style="swimlane;fontStyle=0;align=center;verticalAlign=top;childLayout=stackLayout;horizontal=1;startSize=26;horizontalStack=0;resizeParent=1;resizeLast=0;collapsible=1;marginBottom=0;rounded=0;shadow=0;strokeWidth=1;" parent="WIyWlLk6GJQsqaUBKTNV-1" vertex="1">
          <mxGeometry x="-180" y="440" width="110" height="90" as="geometry">
            <mxRectangle x="550" y="140" width="160" height="26" as="alternateBounds" />
          </mxGeometry>
        </mxCell>
        <mxCell id="JQclvMXNQ_sn5CxyNjuB-8" value="LayoutCollection : IEnumerable&lt;Layout&gt;" style="swimlane;fontStyle=0;align=center;verticalAlign=top;childLayout=stackLayout;horizontal=1;startSize=26;horizontalStack=0;resizeParent=1;resizeLast=0;collapsible=1;marginBottom=0;rounded=0;shadow=0;strokeWidth=1;" parent="WIyWlLk6GJQsqaUBKTNV-1" vertex="1">
          <mxGeometry x="-245" y="590" width="240" height="90" as="geometry">
            <mxRectangle x="550" y="140" width="160" height="26" as="alternateBounds" />
          </mxGeometry>
        </mxCell>
        <mxCell id="JQclvMXNQ_sn5CxyNjuB-11" value="Layout" style="swimlane;fontStyle=0;align=center;verticalAlign=top;childLayout=stackLayout;horizontal=1;startSize=26;horizontalStack=0;resizeParent=1;resizeLast=0;collapsible=1;marginBottom=0;rounded=0;shadow=0;strokeWidth=1;" parent="WIyWlLk6GJQsqaUBKTNV-1" vertex="1">
          <mxGeometry x="390" y="590" width="110" height="90" as="geometry">
            <mxRectangle x="550" y="140" width="160" height="26" as="alternateBounds" />
          </mxGeometry>
        </mxCell>
        <mxCell id="JQclvMXNQ_sn5CxyNjuB-12" value="" style="endArrow=classic;html=1;rounded=0;exitX=1;exitY=0.5;exitDx=0;exitDy=0;entryX=0;entryY=0.5;entryDx=0;entryDy=0;" parent="WIyWlLk6GJQsqaUBKTNV-1" source="JQclvMXNQ_sn5CxyNjuB-8" target="JQclvMXNQ_sn5CxyNjuB-11" edge="1">
          <mxGeometry width="50" height="50" relative="1" as="geometry">
            <mxPoint x="880" y="440" as="sourcePoint" />
            <mxPoint x="930" y="390" as="targetPoint" />
          </mxGeometry>
        </mxCell>
        <mxCell id="JQclvMXNQ_sn5CxyNjuB-13" value="TemplateCollection : Tree" style="swimlane;fontStyle=0;align=center;verticalAlign=top;childLayout=stackLayout;horizontal=1;startSize=26;horizontalStack=0;resizeParent=1;resizeLast=0;collapsible=1;marginBottom=0;rounded=0;shadow=0;strokeWidth=1;" parent="WIyWlLk6GJQsqaUBKTNV-1" vertex="1">
          <mxGeometry x="243.75" y="760" width="402.5" height="90" as="geometry">
            <mxRectangle x="550" y="140" width="160" height="26" as="alternateBounds" />
          </mxGeometry>
        </mxCell>
        <mxCell id="JQclvMXNQ_sn5CxyNjuB-15" value="IDictionary&amp;lt;Size, KeyValuePair&amp;lt;int, List&amp;lt;Template&amp;gt;&amp;gt;&amp;gt; GetFrameAreas()" style="text;whiteSpace=wrap;html=1;" parent="JQclvMXNQ_sn5CxyNjuB-13" vertex="1">
          <mxGeometry y="26" width="402.5" height="24" as="geometry" />
        </mxCell>
        <mxCell id="JQclvMXNQ_sn5CxyNjuB-16" value="IDictionary&amp;lt;int, KeyValuePair&amp;lt;Size, List&amp;lt;Template&amp;gt;&amp;gt;&amp;gt; GetFrameIndexes()" style="text;whiteSpace=wrap;html=1;" parent="JQclvMXNQ_sn5CxyNjuB-13" vertex="1">
          <mxGeometry y="50" width="402.5" height="24" as="geometry" />
        </mxCell>
        <mxCell id="JQclvMXNQ_sn5CxyNjuB-14" value="" style="endArrow=classic;html=1;rounded=0;exitX=0.5;exitY=1;exitDx=0;exitDy=0;entryX=0.5;entryY=0;entryDx=0;entryDy=0;" parent="WIyWlLk6GJQsqaUBKTNV-1" source="JQclvMXNQ_sn5CxyNjuB-11" target="JQclvMXNQ_sn5CxyNjuB-13" edge="1">
          <mxGeometry width="50" height="50" relative="1" as="geometry">
            <mxPoint x="880" y="440" as="sourcePoint" />
            <mxPoint x="930" y="390" as="targetPoint" />
          </mxGeometry>
        </mxCell>
        <mxCell id="JQclvMXNQ_sn5CxyNjuB-60" style="edgeStyle=orthogonalEdgeStyle;rounded=0;orthogonalLoop=1;jettySize=auto;html=1;exitX=0;exitY=0.5;exitDx=0;exitDy=0;" parent="WIyWlLk6GJQsqaUBKTNV-1" source="JQclvMXNQ_sn5CxyNjuB-17" target="JQclvMXNQ_sn5CxyNjuB-24" edge="1">
          <mxGeometry relative="1" as="geometry" />
        </mxCell>
        <mxCell id="JQclvMXNQ_sn5CxyNjuB-61" style="edgeStyle=orthogonalEdgeStyle;rounded=0;orthogonalLoop=1;jettySize=auto;html=1;exitX=0;exitY=0.5;exitDx=0;exitDy=0;entryX=0.5;entryY=0;entryDx=0;entryDy=0;" parent="WIyWlLk6GJQsqaUBKTNV-1" source="JQclvMXNQ_sn5CxyNjuB-17" target="JQclvMXNQ_sn5CxyNjuB-20" edge="1">
          <mxGeometry relative="1" as="geometry" />
        </mxCell>
        <mxCell id="JQclvMXNQ_sn5CxyNjuB-17" value="Template : Tree" style="swimlane;fontStyle=0;align=center;verticalAlign=top;childLayout=stackLayout;horizontal=1;startSize=26;horizontalStack=0;resizeParent=1;resizeLast=0;collapsible=1;marginBottom=0;rounded=0;shadow=0;strokeWidth=1;" parent="WIyWlLk6GJQsqaUBKTNV-1" vertex="1">
          <mxGeometry x="370" y="910" width="150" height="90" as="geometry">
            <mxRectangle x="550" y="140" width="160" height="26" as="alternateBounds" />
          </mxGeometry>
        </mxCell>
        <mxCell id="JQclvMXNQ_sn5CxyNjuB-19" value="" style="endArrow=classic;html=1;rounded=0;exitX=0.5;exitY=1;exitDx=0;exitDy=0;" parent="WIyWlLk6GJQsqaUBKTNV-1" source="JQclvMXNQ_sn5CxyNjuB-13" target="JQclvMXNQ_sn5CxyNjuB-17" edge="1">
          <mxGeometry width="50" height="50" relative="1" as="geometry">
            <mxPoint x="880" y="540" as="sourcePoint" />
            <mxPoint x="930" y="490" as="targetPoint" />
          </mxGeometry>
        </mxCell>
        <mxCell id="JQclvMXNQ_sn5CxyNjuB-20" value="GraphicsCollection : IEnumerable&lt;GraphicItem&gt;" style="swimlane;fontStyle=0;align=center;verticalAlign=top;childLayout=stackLayout;horizontal=1;startSize=26;horizontalStack=0;resizeParent=1;resizeLast=0;collapsible=1;marginBottom=0;rounded=0;shadow=0;strokeWidth=1;" parent="WIyWlLk6GJQsqaUBKTNV-1" vertex="1">
          <mxGeometry x="10" y="1070" width="270" height="90" as="geometry">
            <mxRectangle x="550" y="140" width="160" height="26" as="alternateBounds" />
          </mxGeometry>
        </mxCell>
        <mxCell id="JQclvMXNQ_sn5CxyNjuB-68" style="edgeStyle=orthogonalEdgeStyle;rounded=0;orthogonalLoop=1;jettySize=auto;html=1;exitX=0.5;exitY=1;exitDx=0;exitDy=0;" parent="WIyWlLk6GJQsqaUBKTNV-1" source="JQclvMXNQ_sn5CxyNjuB-22" target="JQclvMXNQ_sn5CxyNjuB-59" edge="1">
          <mxGeometry relative="1" as="geometry" />
        </mxCell>
        <mxCell id="JQclvMXNQ_sn5CxyNjuB-22" value="TextCollection : GraphicsCollection" style="swimlane;fontStyle=0;align=center;verticalAlign=top;childLayout=stackLayout;horizontal=1;startSize=26;horizontalStack=0;resizeParent=1;resizeLast=0;collapsible=1;marginBottom=0;rounded=0;shadow=0;strokeWidth=1;" parent="WIyWlLk6GJQsqaUBKTNV-1" vertex="1">
          <mxGeometry x="335" y="1070" width="220" height="90" as="geometry">
            <mxRectangle x="550" y="140" width="160" height="26" as="alternateBounds" />
          </mxGeometry>
        </mxCell>
        <mxCell id="JQclvMXNQ_sn5CxyNjuB-55" style="edgeStyle=orthogonalEdgeStyle;rounded=0;orthogonalLoop=1;jettySize=auto;html=1;exitX=0.5;exitY=1;exitDx=0;exitDy=0;" parent="WIyWlLk6GJQsqaUBKTNV-1" source="JQclvMXNQ_sn5CxyNjuB-24" target="JQclvMXNQ_sn5CxyNjuB-52" edge="1">
          <mxGeometry relative="1" as="geometry" />
        </mxCell>
        <mxCell id="JQclvMXNQ_sn5CxyNjuB-24" value="FrameCollection : IEnumerable&lt;RectangleF&gt;" style="swimlane;fontStyle=0;align=center;verticalAlign=top;childLayout=stackLayout;horizontal=1;startSize=26;horizontalStack=0;resizeParent=1;resizeLast=0;collapsible=1;marginBottom=0;rounded=0;shadow=0;strokeWidth=1;" parent="WIyWlLk6GJQsqaUBKTNV-1" vertex="1">
          <mxGeometry x="-320" y="1070" width="260" height="90" as="geometry">
            <mxRectangle x="550" y="140" width="160" height="26" as="alternateBounds" />
          </mxGeometry>
        </mxCell>
        <mxCell id="JQclvMXNQ_sn5CxyNjuB-25" value="" style="endArrow=classic;html=1;rounded=0;exitX=0.5;exitY=1;exitDx=0;exitDy=0;entryX=0.5;entryY=0;entryDx=0;entryDy=0;" parent="WIyWlLk6GJQsqaUBKTNV-1" source="JQclvMXNQ_sn5CxyNjuB-17" target="JQclvMXNQ_sn5CxyNjuB-22" edge="1">
          <mxGeometry width="50" height="50" relative="1" as="geometry">
            <mxPoint x="880" y="1040" as="sourcePoint" />
            <mxPoint x="930" y="990" as="targetPoint" />
          </mxGeometry>
        </mxCell>
        <mxCell id="JQclvMXNQ_sn5CxyNjuB-27" value="" style="swimlane;startSize=0;" parent="WIyWlLk6GJQsqaUBKTNV-1" vertex="1">
          <mxGeometry x="-780" y="910" width="110" height="50" as="geometry" />
        </mxCell>
        <mxCell id="JQclvMXNQ_sn5CxyNjuB-28" value="FrameHashIndex" style="text;whiteSpace=wrap;html=1;align=center;" parent="JQclvMXNQ_sn5CxyNjuB-27" vertex="1">
          <mxGeometry y="10" width="110" height="40" as="geometry" />
        </mxCell>
        <mxCell id="JQclvMXNQ_sn5CxyNjuB-29" value="" style="swimlane;startSize=0;" parent="WIyWlLk6GJQsqaUBKTNV-1" vertex="1">
          <mxGeometry x="-960" y="910" width="110" height="50" as="geometry" />
        </mxCell>
        <mxCell id="JQclvMXNQ_sn5CxyNjuB-30" value="FrameHashSize" style="text;whiteSpace=wrap;html=1;align=center;" parent="JQclvMXNQ_sn5CxyNjuB-29" vertex="1">
          <mxGeometry y="10" width="110" height="40" as="geometry" />
        </mxCell>
        <mxCell id="JQclvMXNQ_sn5CxyNjuB-45" style="edgeStyle=orthogonalEdgeStyle;rounded=0;orthogonalLoop=1;jettySize=auto;html=1;exitX=0.5;exitY=1;exitDx=0;exitDy=0;entryX=0.5;entryY=0;entryDx=0;entryDy=0;" parent="WIyWlLk6GJQsqaUBKTNV-1" source="JQclvMXNQ_sn5CxyNjuB-39" target="JQclvMXNQ_sn5CxyNjuB-41" edge="1">
          <mxGeometry relative="1" as="geometry" />
        </mxCell>
        <mxCell id="JQclvMXNQ_sn5CxyNjuB-46" style="edgeStyle=orthogonalEdgeStyle;rounded=0;orthogonalLoop=1;jettySize=auto;html=1;exitX=0.5;exitY=1;exitDx=0;exitDy=0;entryX=0.5;entryY=0;entryDx=0;entryDy=0;" parent="WIyWlLk6GJQsqaUBKTNV-1" source="JQclvMXNQ_sn5CxyNjuB-39" target="JQclvMXNQ_sn5CxyNjuB-42" edge="1">
          <mxGeometry relative="1" as="geometry" />
        </mxCell>
        <mxCell id="JQclvMXNQ_sn5CxyNjuB-47" style="edgeStyle=orthogonalEdgeStyle;rounded=0;orthogonalLoop=1;jettySize=auto;html=1;exitX=0.5;exitY=1;exitDx=0;exitDy=0;entryX=0.5;entryY=0;entryDx=0;entryDy=0;" parent="WIyWlLk6GJQsqaUBKTNV-1" source="JQclvMXNQ_sn5CxyNjuB-39" target="JQclvMXNQ_sn5CxyNjuB-43" edge="1">
          <mxGeometry relative="1" as="geometry" />
        </mxCell>
        <mxCell id="JQclvMXNQ_sn5CxyNjuB-48" style="edgeStyle=orthogonalEdgeStyle;rounded=0;orthogonalLoop=1;jettySize=auto;html=1;exitX=0.5;exitY=1;exitDx=0;exitDy=0;entryX=0.5;entryY=0;entryDx=0;entryDy=0;" parent="WIyWlLk6GJQsqaUBKTNV-1" source="JQclvMXNQ_sn5CxyNjuB-39" target="JQclvMXNQ_sn5CxyNjuB-44" edge="1">
          <mxGeometry relative="1" as="geometry" />
        </mxCell>
        <mxCell id="JQclvMXNQ_sn5CxyNjuB-39" value="GraphicItem : Tree" style="swimlane;fontStyle=0;align=center;verticalAlign=top;childLayout=stackLayout;horizontal=1;startSize=26;horizontalStack=0;resizeParent=1;resizeLast=0;collapsible=1;marginBottom=0;rounded=0;shadow=0;strokeWidth=1;" parent="WIyWlLk6GJQsqaUBKTNV-1" vertex="1">
          <mxGeometry x="-200" y="1270" width="130" height="70" as="geometry">
            <mxRectangle x="550" y="140" width="160" height="26" as="alternateBounds" />
          </mxGeometry>
        </mxCell>
        <mxCell id="JQclvMXNQ_sn5CxyNjuB-40" value="" style="endArrow=classic;html=1;rounded=0;exitX=0.5;exitY=1;exitDx=0;exitDy=0;entryX=0.5;entryY=0;entryDx=0;entryDy=0;edgeStyle=orthogonalEdgeStyle;" parent="WIyWlLk6GJQsqaUBKTNV-1" source="JQclvMXNQ_sn5CxyNjuB-20" target="JQclvMXNQ_sn5CxyNjuB-39" edge="1">
          <mxGeometry width="50" height="50" relative="1" as="geometry">
            <mxPoint x="880" y="940" as="sourcePoint" />
            <mxPoint x="930" y="890" as="targetPoint" />
          </mxGeometry>
        </mxCell>
        <mxCell id="JQclvMXNQ_sn5CxyNjuB-41" value="FillItem" style="swimlane;fontStyle=0;align=center;verticalAlign=top;childLayout=stackLayout;horizontal=1;startSize=26;horizontalStack=0;resizeParent=1;resizeLast=0;collapsible=1;marginBottom=0;rounded=0;shadow=0;strokeWidth=1;" parent="WIyWlLk6GJQsqaUBKTNV-1" vertex="1">
          <mxGeometry x="-20" y="1420" width="80" height="70" as="geometry">
            <mxRectangle x="550" y="140" width="160" height="26" as="alternateBounds" />
          </mxGeometry>
        </mxCell>
        <mxCell id="JQclvMXNQ_sn5CxyNjuB-42" value="ClipItem" style="swimlane;fontStyle=0;align=center;verticalAlign=top;childLayout=stackLayout;horizontal=1;startSize=26;horizontalStack=0;resizeParent=1;resizeLast=0;collapsible=1;marginBottom=0;rounded=0;shadow=0;strokeWidth=1;" parent="WIyWlLk6GJQsqaUBKTNV-1" vertex="1">
          <mxGeometry x="-220" y="1420" width="80" height="70" as="geometry">
            <mxRectangle x="550" y="140" width="160" height="26" as="alternateBounds" />
          </mxGeometry>
        </mxCell>
        <mxCell id="JQclvMXNQ_sn5CxyNjuB-43" value="EllipseItem" style="swimlane;fontStyle=0;align=center;verticalAlign=top;childLayout=stackLayout;horizontal=1;startSize=26;horizontalStack=0;resizeParent=1;resizeLast=0;collapsible=1;marginBottom=0;rounded=0;shadow=0;strokeWidth=1;" parent="WIyWlLk6GJQsqaUBKTNV-1" vertex="1">
          <mxGeometry x="-120" y="1420" width="80" height="70" as="geometry">
            <mxRectangle x="550" y="140" width="160" height="26" as="alternateBounds" />
          </mxGeometry>
        </mxCell>
        <mxCell id="JQclvMXNQ_sn5CxyNjuB-51" style="edgeStyle=orthogonalEdgeStyle;rounded=0;orthogonalLoop=1;jettySize=auto;html=1;exitX=0;exitY=0.5;exitDx=0;exitDy=0;entryX=1;entryY=0.5;entryDx=0;entryDy=0;" parent="WIyWlLk6GJQsqaUBKTNV-1" source="JQclvMXNQ_sn5CxyNjuB-44" target="JQclvMXNQ_sn5CxyNjuB-50" edge="1">
          <mxGeometry relative="1" as="geometry" />
        </mxCell>
        <mxCell id="JQclvMXNQ_sn5CxyNjuB-44" value="ImageItem" style="swimlane;fontStyle=0;align=center;verticalAlign=top;childLayout=stackLayout;horizontal=1;startSize=26;horizontalStack=0;resizeParent=1;resizeLast=0;collapsible=1;marginBottom=0;rounded=0;shadow=0;strokeWidth=1;" parent="WIyWlLk6GJQsqaUBKTNV-1" vertex="1">
          <mxGeometry x="-320" y="1420" width="80" height="70" as="geometry">
            <mxRectangle x="550" y="140" width="160" height="26" as="alternateBounds" />
          </mxGeometry>
        </mxCell>
        <mxCell id="JQclvMXNQ_sn5CxyNjuB-58" style="edgeStyle=orthogonalEdgeStyle;rounded=0;orthogonalLoop=1;jettySize=auto;html=1;exitX=0.5;exitY=0;exitDx=0;exitDy=0;entryX=0.5;entryY=1;entryDx=0;entryDy=0;" parent="WIyWlLk6GJQsqaUBKTNV-1" source="JQclvMXNQ_sn5CxyNjuB-50" target="JQclvMXNQ_sn5CxyNjuB-52" edge="1">
          <mxGeometry relative="1" as="geometry" />
        </mxCell>
        <mxCell id="khSnl6Eu7bIwyBFIdUrY-1" style="edgeStyle=orthogonalEdgeStyle;rounded=0;orthogonalLoop=1;jettySize=auto;html=1;exitX=0.5;exitY=1;exitDx=0;exitDy=0;entryX=0.5;entryY=0;entryDx=0;entryDy=0;" parent="WIyWlLk6GJQsqaUBKTNV-1" source="JQclvMXNQ_sn5CxyNjuB-50" target="khSnl6Eu7bIwyBFIdUrY-0" edge="1">
          <mxGeometry relative="1" as="geometry" />
        </mxCell>
        <mxCell id="JQclvMXNQ_sn5CxyNjuB-50" value="ImageFrame" style="swimlane;fontStyle=0;align=center;verticalAlign=top;childLayout=stackLayout;horizontal=1;startSize=26;horizontalStack=0;resizeParent=1;resizeLast=0;collapsible=1;marginBottom=0;rounded=0;shadow=0;strokeWidth=1;" parent="WIyWlLk6GJQsqaUBKTNV-1" vertex="1">
          <mxGeometry x="-805" y="1420" width="130" height="70" as="geometry">
            <mxRectangle x="550" y="140" width="160" height="26" as="alternateBounds" />
          </mxGeometry>
        </mxCell>
        <mxCell id="JQclvMXNQ_sn5CxyNjuB-52" value="" style="swimlane;startSize=0;" parent="WIyWlLk6GJQsqaUBKTNV-1" vertex="1">
          <mxGeometry x="-815" y="1280" width="150" height="60" as="geometry" />
        </mxCell>
        <mxCell id="JQclvMXNQ_sn5CxyNjuB-54" value="RectangleF" style="text;whiteSpace=wrap;html=1;align=center;" parent="JQclvMXNQ_sn5CxyNjuB-52" vertex="1">
          <mxGeometry y="15" width="150" height="40" as="geometry" />
        </mxCell>
        <mxCell id="khSnl6Eu7bIwyBFIdUrY-13" style="edgeStyle=orthogonalEdgeStyle;rounded=0;orthogonalLoop=1;jettySize=auto;html=1;exitX=0.5;exitY=1;exitDx=0;exitDy=0;entryX=1;entryY=0.75;entryDx=0;entryDy=0;" parent="WIyWlLk6GJQsqaUBKTNV-1" source="JQclvMXNQ_sn5CxyNjuB-59" target="JQclvMXNQ_sn5CxyNjuB-71" edge="1">
          <mxGeometry relative="1" as="geometry" />
        </mxCell>
        <mxCell id="JQclvMXNQ_sn5CxyNjuB-59" value="TextFrame : GraphicItem" style="swimlane;fontStyle=0;align=center;verticalAlign=top;childLayout=stackLayout;horizontal=1;startSize=26;horizontalStack=0;resizeParent=1;resizeLast=0;collapsible=1;marginBottom=0;rounded=0;shadow=0;strokeWidth=1;" parent="WIyWlLk6GJQsqaUBKTNV-1" vertex="1">
          <mxGeometry x="360" y="1240" width="170" height="70" as="geometry">
            <mxRectangle x="550" y="140" width="160" height="26" as="alternateBounds" />
          </mxGeometry>
        </mxCell>
        <mxCell id="JQclvMXNQ_sn5CxyNjuB-62" style="edgeStyle=orthogonalEdgeStyle;rounded=0;orthogonalLoop=1;jettySize=auto;html=1;exitX=0;exitY=0;exitDx=0;exitDy=0;entryX=0.5;entryY=0;entryDx=0;entryDy=0;" parent="WIyWlLk6GJQsqaUBKTNV-1" source="JQclvMXNQ_sn5CxyNjuB-16" target="JQclvMXNQ_sn5CxyNjuB-29" edge="1">
          <mxGeometry relative="1" as="geometry" />
        </mxCell>
        <mxCell id="JQclvMXNQ_sn5CxyNjuB-63" style="edgeStyle=orthogonalEdgeStyle;rounded=0;orthogonalLoop=1;jettySize=auto;html=1;exitX=0;exitY=0;exitDx=0;exitDy=0;" parent="WIyWlLk6GJQsqaUBKTNV-1" source="JQclvMXNQ_sn5CxyNjuB-16" target="JQclvMXNQ_sn5CxyNjuB-27" edge="1">
          <mxGeometry relative="1" as="geometry" />
        </mxCell>
        <mxCell id="JQclvMXNQ_sn5CxyNjuB-69" value="TextLine: Tree" style="swimlane;fontStyle=0;align=center;verticalAlign=top;childLayout=stackLayout;horizontal=1;startSize=26;horizontalStack=0;resizeParent=1;resizeLast=0;collapsible=1;marginBottom=0;rounded=0;shadow=0;strokeWidth=1;" parent="WIyWlLk6GJQsqaUBKTNV-1" vertex="1">
          <mxGeometry x="-540" y="1571" width="130" height="70" as="geometry">
            <mxRectangle x="550" y="140" width="160" height="26" as="alternateBounds" />
          </mxGeometry>
        </mxCell>
        <mxCell id="JQclvMXNQ_sn5CxyNjuB-71" value="TEXT&lt;div&gt;&lt;br&gt;&lt;/div&gt;" style="text;whiteSpace=wrap;html=1;align=center;" parent="JQclvMXNQ_sn5CxyNjuB-69" vertex="1">
          <mxGeometry y="26" width="130" height="20" as="geometry" />
        </mxCell>
        <mxCell id="JQclvMXNQ_sn5CxyNjuB-72" value="TemplateKeys : List&lt;Guid&gt;" style="swimlane;fontStyle=0;align=center;verticalAlign=top;childLayout=stackLayout;horizontal=1;startSize=26;horizontalStack=0;resizeParent=1;resizeLast=0;collapsible=1;marginBottom=0;rounded=0;shadow=0;strokeWidth=1;" parent="WIyWlLk6GJQsqaUBKTNV-1" vertex="1">
          <mxGeometry x="610" y="440" width="170" height="90" as="geometry">
            <mxRectangle x="550" y="140" width="160" height="26" as="alternateBounds" />
          </mxGeometry>
        </mxCell>
        <mxCell id="JQclvMXNQ_sn5CxyNjuB-78" value="" style="endArrow=classic;html=1;rounded=0;exitX=0.5;exitY=1;exitDx=0;exitDy=0;entryX=1;entryY=0.5;entryDx=0;entryDy=0;" parent="WIyWlLk6GJQsqaUBKTNV-1" source="JQclvMXNQ_sn5CxyNjuB-72" target="JQclvMXNQ_sn5CxyNjuB-17" edge="1">
          <mxGeometry width="50" height="50" relative="1" as="geometry">
            <mxPoint x="410" y="880" as="sourcePoint" />
            <mxPoint x="460" y="830" as="targetPoint" />
            <Array as="points">
              <mxPoint x="695" y="955" />
            </Array>
          </mxGeometry>
        </mxCell>
        <mxCell id="khSnl6Eu7bIwyBFIdUrY-2" style="rounded=0;orthogonalLoop=1;jettySize=auto;html=1;exitX=1;exitY=0.5;exitDx=0;exitDy=0;entryX=0;entryY=0.75;entryDx=0;entryDy=0;" parent="WIyWlLk6GJQsqaUBKTNV-1" source="khSnl6Eu7bIwyBFIdUrY-0" target="JQclvMXNQ_sn5CxyNjuB-71" edge="1">
          <mxGeometry relative="1" as="geometry" />
        </mxCell>
        <mxCell id="khSnl6Eu7bIwyBFIdUrY-0" value="PinnedTextCollection : IEnumerable&lt;Guid&gt;" style="swimlane;fontStyle=0;align=center;verticalAlign=top;childLayout=stackLayout;horizontal=1;startSize=26;horizontalStack=0;resizeParent=1;resizeLast=0;collapsible=1;marginBottom=0;rounded=0;shadow=0;strokeWidth=1;" parent="WIyWlLk6GJQsqaUBKTNV-1" vertex="1">
          <mxGeometry x="-870" y="1571" width="260" height="79" as="geometry">
            <mxRectangle x="550" y="140" width="160" height="26" as="alternateBounds" />
          </mxGeometry>
        </mxCell>
        <mxCell id="khSnl6Eu7bIwyBFIdUrY-4" value="" style="endArrow=classic;html=1;rounded=0;exitX=0;exitY=0.5;exitDx=0;exitDy=0;entryX=0.445;entryY=1.05;entryDx=0;entryDy=0;entryPerimeter=0;" parent="WIyWlLk6GJQsqaUBKTNV-1" source="JQclvMXNQ_sn5CxyNjuB-24" target="JQclvMXNQ_sn5CxyNjuB-28" edge="1">
          <mxGeometry relative="1" as="geometry">
            <mxPoint x="170" y="1310" as="sourcePoint" />
            <mxPoint x="270" y="1310" as="targetPoint" />
          </mxGeometry>
        </mxCell>
        <mxCell id="khSnl6Eu7bIwyBFIdUrY-5" value="Label" style="edgeLabel;resizable=0;html=1;;align=center;verticalAlign=middle;" parent="khSnl6Eu7bIwyBFIdUrY-4" connectable="0" vertex="1">
          <mxGeometry relative="1" as="geometry" />
        </mxCell>
        <mxCell id="khSnl6Eu7bIwyBFIdUrY-8" value="onFrameAdded" style="edgeLabel;html=1;align=center;verticalAlign=middle;resizable=0;points=[];" parent="khSnl6Eu7bIwyBFIdUrY-4" vertex="1" connectable="0">
          <mxGeometry x="-0.0099" relative="1" as="geometry">
            <mxPoint as="offset" />
          </mxGeometry>
        </mxCell>
        <mxCell id="khSnl6Eu7bIwyBFIdUrY-6" value="" style="endArrow=classic;html=1;rounded=0;exitX=0;exitY=0.5;exitDx=0;exitDy=0;entryX=0.5;entryY=1;entryDx=0;entryDy=0;edgeStyle=orthogonalEdgeStyle;" parent="WIyWlLk6GJQsqaUBKTNV-1" source="JQclvMXNQ_sn5CxyNjuB-24" target="JQclvMXNQ_sn5CxyNjuB-30" edge="1">
          <mxGeometry relative="1" as="geometry">
            <mxPoint x="170" y="1310" as="sourcePoint" />
            <mxPoint x="270" y="1310" as="targetPoint" />
          </mxGeometry>
        </mxCell>
        <mxCell id="khSnl6Eu7bIwyBFIdUrY-7" value="Label" style="edgeLabel;resizable=0;html=1;;align=center;verticalAlign=middle;" parent="khSnl6Eu7bIwyBFIdUrY-6" connectable="0" vertex="1">
          <mxGeometry relative="1" as="geometry">
            <mxPoint x="-130" as="offset" />
          </mxGeometry>
        </mxCell>
        <mxCell id="khSnl6Eu7bIwyBFIdUrY-9" value="onFrameAdded" style="edgeLabel;html=1;align=center;verticalAlign=middle;resizable=0;points=[];" parent="khSnl6Eu7bIwyBFIdUrY-6" vertex="1" connectable="0">
          <mxGeometry x="-0.0262" y="-1" relative="1" as="geometry">
            <mxPoint x="-130" as="offset" />
          </mxGeometry>
        </mxCell>
        <mxCell id="khSnl6Eu7bIwyBFIdUrY-10" value="" style="endArrow=classic;html=1;rounded=0;exitX=0;exitY=0.5;exitDx=0;exitDy=0;entryX=1;entryY=0.5;entryDx=0;entryDy=0;" parent="WIyWlLk6GJQsqaUBKTNV-1" source="JQclvMXNQ_sn5CxyNjuB-24" target="JQclvMXNQ_sn5CxyNjuB-50" edge="1">
          <mxGeometry relative="1" as="geometry">
            <mxPoint x="170" y="1310" as="sourcePoint" />
            <mxPoint x="270" y="1310" as="targetPoint" />
          </mxGeometry>
        </mxCell>
        <mxCell id="khSnl6Eu7bIwyBFIdUrY-11" value="onFrameAdded" style="edgeLabel;resizable=0;html=1;;align=center;verticalAlign=middle;" parent="khSnl6Eu7bIwyBFIdUrY-10" connectable="0" vertex="1">
          <mxGeometry relative="1" as="geometry" />
        </mxCell>
        <mxCell id="khSnl6Eu7bIwyBFIdUrY-14" value="" style="endArrow=classic;html=1;rounded=0;entryX=0.5;entryY=0;entryDx=0;entryDy=0;" parent="WIyWlLk6GJQsqaUBKTNV-1" target="JQclvMXNQ_sn5CxyNjuB-69" edge="1">
          <mxGeometry relative="1" as="geometry">
            <mxPoint x="-320" y="1120" as="sourcePoint" />
            <mxPoint x="-665" y="1465" as="targetPoint" />
          </mxGeometry>
        </mxCell>
        <mxCell id="khSnl6Eu7bIwyBFIdUrY-15" value="onFrameAdded" style="edgeLabel;resizable=0;html=1;;align=center;verticalAlign=middle;" parent="khSnl6Eu7bIwyBFIdUrY-14" connectable="0" vertex="1">
          <mxGeometry relative="1" as="geometry" />
        </mxCell>
        <mxCell id="epZmwYBo2XGwXkZfo943-3" style="edgeStyle=orthogonalEdgeStyle;rounded=0;orthogonalLoop=1;jettySize=auto;html=1;exitX=0.5;exitY=1;exitDx=0;exitDy=0;entryX=0.5;entryY=0;entryDx=0;entryDy=0;" parent="WIyWlLk6GJQsqaUBKTNV-1" source="epZmwYBo2XGwXkZfo943-0" target="epZmwYBo2XGwXkZfo943-2" edge="1">
          <mxGeometry relative="1" as="geometry" />
        </mxCell>
        <mxCell id="epZmwYBo2XGwXkZfo943-0" value="Job" style="swimlane;fontStyle=0;align=center;verticalAlign=top;childLayout=stackLayout;horizontal=1;startSize=26;horizontalStack=0;resizeParent=1;resizeLast=0;collapsible=1;marginBottom=0;rounded=0;shadow=0;strokeWidth=1;html=1;" parent="WIyWlLk6GJQsqaUBKTNV-1" vertex="1">
          <mxGeometry x="-805" y="-100" width="110" height="90" as="geometry">
            <mxRectangle x="-180" y="30" width="160" height="26" as="alternateBounds" />
          </mxGeometry>
        </mxCell>
        <mxCell id="epZmwYBo2XGwXkZfo943-6" style="edgeStyle=orthogonalEdgeStyle;rounded=0;orthogonalLoop=1;jettySize=auto;html=1;exitX=0.5;exitY=1;exitDx=0;exitDy=0;" parent="WIyWlLk6GJQsqaUBKTNV-1" source="epZmwYBo2XGwXkZfo943-2" target="epZmwYBo2XGwXkZfo943-5" edge="1">
          <mxGeometry relative="1" as="geometry" />
        </mxCell>
        <mxCell id="epZmwYBo2XGwXkZfo943-2" value="INIT" style="rounded=1;whiteSpace=wrap;html=1;" parent="WIyWlLk6GJQsqaUBKTNV-1" vertex="1">
          <mxGeometry x="-180" y="170" width="110" height="60" as="geometry" />
        </mxCell>
        <mxCell id="epZmwYBo2XGwXkZfo943-5" value="CREATE" style="rounded=1;whiteSpace=wrap;html=1;verticalAlign=top;" parent="WIyWlLk6GJQsqaUBKTNV-1" vertex="1">
          <mxGeometry x="-180" y="290" width="110" height="80" as="geometry" />
        </mxCell>
        <mxCell id="epZmwYBo2XGwXkZfo943-18" style="edgeStyle=orthogonalEdgeStyle;rounded=0;orthogonalLoop=1;jettySize=auto;html=1;exitX=0;exitY=0.5;exitDx=0;exitDy=0;entryX=1;entryY=0.5;entryDx=0;entryDy=0;" parent="WIyWlLk6GJQsqaUBKTNV-1" source="epZmwYBo2XGwXkZfo943-17" target="epZmwYBo2XGwXkZfo943-5" edge="1">
          <mxGeometry relative="1" as="geometry" />
        </mxCell>
        <mxCell id="epZmwYBo2XGwXkZfo943-17" value="Product propeties:&lt;div&gt;UID,&lt;span style=&quot;background-color: initial;&quot;&gt;&amp;nbsp;Size&lt;/span&gt;&lt;/div&gt;" style="shape=parallelogram;perimeter=parallelogramPerimeter;whiteSpace=wrap;html=1;fixedSize=1;align=center;" parent="WIyWlLk6GJQsqaUBKTNV-1" vertex="1">
          <mxGeometry x="85" y="290" width="155" height="80" as="geometry" />
        </mxCell>
        <mxCell id="epZmwYBo2XGwXkZfo943-23" style="edgeStyle=orthogonalEdgeStyle;rounded=0;orthogonalLoop=1;jettySize=auto;html=1;exitX=0;exitY=0.5;exitDx=0;exitDy=0;entryX=1;entryY=0.5;entryDx=0;entryDy=0;" parent="WIyWlLk6GJQsqaUBKTNV-1" source="epZmwYBo2XGwXkZfo943-19" target="epZmwYBo2XGwXkZfo943-21" edge="1">
          <mxGeometry relative="1" as="geometry" />
        </mxCell>
        <mxCell id="epZmwYBo2XGwXkZfo943-24" style="edgeStyle=orthogonalEdgeStyle;rounded=0;orthogonalLoop=1;jettySize=auto;html=1;exitX=0;exitY=0.5;exitDx=0;exitDy=0;entryX=1;entryY=0.5;entryDx=0;entryDy=0;" parent="WIyWlLk6GJQsqaUBKTNV-1" source="epZmwYBo2XGwXkZfo943-19" target="epZmwYBo2XGwXkZfo943-22" edge="1">
          <mxGeometry relative="1" as="geometry" />
        </mxCell>
        <mxCell id="epZmwYBo2XGwXkZfo943-19" value="Detail: Tree" style="swimlane;fontStyle=0;align=center;verticalAlign=top;childLayout=stackLayout;horizontal=1;startSize=26;horizontalStack=0;resizeParent=1;resizeLast=0;collapsible=1;marginBottom=0;rounded=0;shadow=0;strokeWidth=1;" parent="WIyWlLk6GJQsqaUBKTNV-1" vertex="1">
          <mxGeometry x="-413" y="440" width="110" height="90" as="geometry">
            <mxRectangle x="550" y="140" width="160" height="26" as="alternateBounds" />
          </mxGeometry>
        </mxCell>
        <mxCell id="epZmwYBo2XGwXkZfo943-21" value="BlockDetail: Detail" style="swimlane;fontStyle=0;align=center;verticalAlign=top;childLayout=stackLayout;horizontal=1;startSize=26;horizontalStack=0;resizeParent=1;resizeLast=0;collapsible=1;marginBottom=0;rounded=0;shadow=0;strokeWidth=1;" parent="WIyWlLk6GJQsqaUBKTNV-1" vertex="1">
          <mxGeometry x="-700" y="376" width="110" height="90" as="geometry">
            <mxRectangle x="550" y="140" width="160" height="26" as="alternateBounds" />
          </mxGeometry>
        </mxCell>
        <mxCell id="epZmwYBo2XGwXkZfo943-22" value="CoverDetail: Detail" style="swimlane;fontStyle=0;align=center;verticalAlign=top;childLayout=stackLayout;horizontal=1;startSize=26;horizontalStack=0;resizeParent=1;resizeLast=0;collapsible=1;marginBottom=0;rounded=0;shadow=0;strokeWidth=1;" parent="WIyWlLk6GJQsqaUBKTNV-1" vertex="1">
          <mxGeometry x="-700" y="505" width="110" height="90" as="geometry">
            <mxRectangle x="550" y="140" width="160" height="26" as="alternateBounds" />
          </mxGeometry>
        </mxCell>
        <mxCell id="epZmwYBo2XGwXkZfo943-26" style="edgeStyle=orthogonalEdgeStyle;rounded=0;orthogonalLoop=1;jettySize=auto;html=1;exitX=0;exitY=0.5;exitDx=0;exitDy=0;entryX=1;entryY=0.5;entryDx=0;entryDy=0;" parent="WIyWlLk6GJQsqaUBKTNV-1" source="epZmwYBo2XGwXkZfo943-25" target="epZmwYBo2XGwXkZfo943-0" edge="1">
          <mxGeometry relative="1" as="geometry" />
        </mxCell>
        <mxCell id="epZmwYBo2XGwXkZfo943-25" value="File Data" style="shape=parallelogram;perimeter=parallelogramPerimeter;whiteSpace=wrap;html=1;fixedSize=1;align=center;" parent="WIyWlLk6GJQsqaUBKTNV-1" vertex="1">
          <mxGeometry x="-565" y="-95" width="110" height="80" as="geometry" />
        </mxCell>
        <mxCell id="qvRgg_N5Kb894ZcYYOUU-2" value="InputProviders : IEnumerable&lt;AbstractInputProvider&gt;" style="swimlane;fontStyle=0;align=center;verticalAlign=top;childLayout=stackLayout;horizontal=1;startSize=26;horizontalStack=0;resizeParent=1;resizeLast=0;collapsible=1;marginBottom=0;rounded=0;shadow=0;strokeWidth=1;" vertex="1" parent="WIyWlLk6GJQsqaUBKTNV-1">
          <mxGeometry x="320" y="60" width="320" height="90" as="geometry">
            <mxRectangle x="550" y="140" width="160" height="26" as="alternateBounds" />
          </mxGeometry>
        </mxCell>
        <mxCell id="qvRgg_N5Kb894ZcYYOUU-0" value="ApplicationFonts : IEnumerable&lt;FontClass&gt;" style="swimlane;fontStyle=0;align=center;verticalAlign=top;childLayout=stackLayout;horizontal=1;startSize=26;horizontalStack=0;resizeParent=1;resizeLast=0;collapsible=1;marginBottom=0;rounded=0;shadow=0;strokeWidth=1;" vertex="1" parent="WIyWlLk6GJQsqaUBKTNV-1">
          <mxGeometry x="460" y="-435" width="765" height="90" as="geometry">
            <mxRectangle x="550" y="140" width="160" height="26" as="alternateBounds" />
          </mxGeometry>
        </mxCell>
        <mxCell id="zkfFHV4jXpPFQw0GAbJ--17" value="ProjectCollection : IEnumerable&lt;Project&gt;" style="swimlane;fontStyle=0;align=center;verticalAlign=top;childLayout=stackLayout;horizontal=1;startSize=26;horizontalStack=0;resizeParent=1;resizeLast=0;collapsible=1;marginBottom=0;rounded=0;shadow=0;strokeWidth=1;expand=0;movable=1;resizable=1;rotatable=1;deletable=1;editable=1;locked=0;connectable=1;" parent="WIyWlLk6GJQsqaUBKTNV-1" vertex="1">
          <mxGeometry x="140" y="-320" width="640" height="120" as="geometry">
            <mxRectangle y="26" width="765" height="26" as="alternateBounds" />
          </mxGeometry>
        </mxCell>
        <mxCell id="qvRgg_N5Kb894ZcYYOUU-27" value="Workspace" style="swimlane;" vertex="1" parent="WIyWlLk6GJQsqaUBKTNV-1">
          <mxGeometry x="-2160" y="-497.5" width="560" height="277.5" as="geometry" />
        </mxCell>
        <mxCell id="qvRgg_N5Kb894ZcYYOUU-30" value="ProjectCollection" style="swimlane;startSize=23;" vertex="1" parent="qvRgg_N5Kb894ZcYYOUU-27">
          <mxGeometry x="20" y="50" width="210" height="90" as="geometry" />
        </mxCell>
        <mxCell id="qvRgg_N5Kb894ZcYYOUU-31" value="ApplicationFonts" style="swimlane;startSize=23;" vertex="1" parent="qvRgg_N5Kb894ZcYYOUU-27">
          <mxGeometry x="310" y="50" width="200" height="90" as="geometry" />
        </mxCell>
        <mxCell id="qvRgg_N5Kb894ZcYYOUU-90" value="AdapterCollection" style="swimlane;" vertex="1" parent="qvRgg_N5Kb894ZcYYOUU-27">
          <mxGeometry x="310" y="167.5" width="200" height="89" as="geometry" />
        </mxCell>
        <mxCell id="qvRgg_N5Kb894ZcYYOUU-61" style="edgeStyle=orthogonalEdgeStyle;rounded=0;orthogonalLoop=1;jettySize=auto;html=1;exitX=1;exitY=0.5;exitDx=0;exitDy=0;entryX=0;entryY=0.5;entryDx=0;entryDy=0;shape=arrow;" edge="1" parent="WIyWlLk6GJQsqaUBKTNV-1" source="qvRgg_N5Kb894ZcYYOUU-32" target="qvRgg_N5Kb894ZcYYOUU-81">
          <mxGeometry relative="1" as="geometry">
            <mxPoint x="-2075" y="170" as="targetPoint" />
          </mxGeometry>
        </mxCell>
        <mxCell id="qvRgg_N5Kb894ZcYYOUU-32" value="Project" style="swimlane;" vertex="1" parent="WIyWlLk6GJQsqaUBKTNV-1">
          <mxGeometry x="-2860" y="83" width="250" height="200" as="geometry" />
        </mxCell>
        <mxCell id="qvRgg_N5Kb894ZcYYOUU-48" value="InputProviders" style="swimlane;" vertex="1" parent="qvRgg_N5Kb894ZcYYOUU-32">
          <mxGeometry x="20" y="50" width="200" height="100" as="geometry" />
        </mxCell>
        <mxCell id="qvRgg_N5Kb894ZcYYOUU-41" style="edgeStyle=orthogonalEdgeStyle;rounded=0;orthogonalLoop=1;jettySize=auto;html=1;exitX=0.5;exitY=1;exitDx=0;exitDy=0;entryX=0.5;entryY=0;entryDx=0;entryDy=0;" edge="1" parent="WIyWlLk6GJQsqaUBKTNV-1" source="qvRgg_N5Kb894ZcYYOUU-34" target="qvRgg_N5Kb894ZcYYOUU-40">
          <mxGeometry relative="1" as="geometry" />
        </mxCell>
        <mxCell id="qvRgg_N5Kb894ZcYYOUU-62" style="edgeStyle=orthogonalEdgeStyle;rounded=0;orthogonalLoop=1;jettySize=auto;html=1;exitX=0.5;exitY=1;exitDx=0;exitDy=0;entryX=0.5;entryY=0;entryDx=0;entryDy=0;" edge="1" parent="WIyWlLk6GJQsqaUBKTNV-1" source="qvRgg_N5Kb894ZcYYOUU-34" target="qvRgg_N5Kb894ZcYYOUU-49">
          <mxGeometry relative="1" as="geometry" />
        </mxCell>
        <mxCell id="qvRgg_N5Kb894ZcYYOUU-34" value="AbstractController : IController" style="swimlane;startSize=23;" vertex="1" parent="WIyWlLk6GJQsqaUBKTNV-1">
          <mxGeometry x="-2940" y="-362.5" width="200" height="90" as="geometry" />
        </mxCell>
        <mxCell id="qvRgg_N5Kb894ZcYYOUU-64" style="edgeStyle=orthogonalEdgeStyle;rounded=0;orthogonalLoop=1;jettySize=auto;html=1;exitX=0.5;exitY=1;exitDx=0;exitDy=0;entryX=1;entryY=0.5;entryDx=0;entryDy=0;" edge="1" parent="WIyWlLk6GJQsqaUBKTNV-1" source="qvRgg_N5Kb894ZcYYOUU-35" target="qvRgg_N5Kb894ZcYYOUU-49">
          <mxGeometry relative="1" as="geometry" />
        </mxCell>
        <mxCell id="qvRgg_N5Kb894ZcYYOUU-35" value="IOutputProvider" style="swimlane;" vertex="1" parent="WIyWlLk6GJQsqaUBKTNV-1">
          <mxGeometry x="-2473" y="-497.5" width="200" height="92.5" as="geometry" />
        </mxCell>
        <mxCell id="qvRgg_N5Kb894ZcYYOUU-46" style="edgeStyle=orthogonalEdgeStyle;rounded=0;orthogonalLoop=1;jettySize=auto;html=1;exitX=0.5;exitY=1;exitDx=0;exitDy=0;entryX=0;entryY=0.5;entryDx=0;entryDy=0;" edge="1" parent="WIyWlLk6GJQsqaUBKTNV-1" source="qvRgg_N5Kb894ZcYYOUU-36" target="qvRgg_N5Kb894ZcYYOUU-40">
          <mxGeometry relative="1" as="geometry">
            <mxPoint x="-3000" y="-235" as="targetPoint" />
          </mxGeometry>
        </mxCell>
        <mxCell id="qvRgg_N5Kb894ZcYYOUU-36" value="IInputProvider" style="swimlane;" vertex="1" parent="WIyWlLk6GJQsqaUBKTNV-1">
          <mxGeometry x="-3380" y="-497.5" width="200" height="87.5" as="geometry" />
        </mxCell>
        <mxCell id="qvRgg_N5Kb894ZcYYOUU-38" value="IController" style="swimlane;" vertex="1" parent="WIyWlLk6GJQsqaUBKTNV-1">
          <mxGeometry x="-2940" y="-497.5" width="200" height="95" as="geometry" />
        </mxCell>
        <mxCell id="qvRgg_N5Kb894ZcYYOUU-39" style="edgeStyle=orthogonalEdgeStyle;rounded=0;orthogonalLoop=1;jettySize=auto;html=1;exitX=0.5;exitY=1;exitDx=0;exitDy=0;entryX=0.505;entryY=-0.067;entryDx=0;entryDy=0;entryPerimeter=0;" edge="1" parent="WIyWlLk6GJQsqaUBKTNV-1" source="qvRgg_N5Kb894ZcYYOUU-38" target="qvRgg_N5Kb894ZcYYOUU-34">
          <mxGeometry relative="1" as="geometry" />
        </mxCell>
        <mxCell id="qvRgg_N5Kb894ZcYYOUU-53" style="edgeStyle=orthogonalEdgeStyle;rounded=0;orthogonalLoop=1;jettySize=auto;html=1;exitX=0.5;exitY=1;exitDx=0;exitDy=0;entryX=0.5;entryY=0;entryDx=0;entryDy=0;shape=arrow;" edge="1" parent="WIyWlLk6GJQsqaUBKTNV-1" source="qvRgg_N5Kb894ZcYYOUU-40" target="qvRgg_N5Kb894ZcYYOUU-80">
          <mxGeometry relative="1" as="geometry">
            <mxPoint x="-3065" y="130" as="targetPoint" />
          </mxGeometry>
        </mxCell>
        <mxCell id="qvRgg_N5Kb894ZcYYOUU-40" value="AbstractInputProvider" style="swimlane;" vertex="1" parent="WIyWlLk6GJQsqaUBKTNV-1">
          <mxGeometry x="-3170" y="-160" width="210" height="160" as="geometry" />
        </mxCell>
        <mxCell id="qvRgg_N5Kb894ZcYYOUU-50" value="DefaultOutput" style="swimlane;whiteSpace=wrap;html=1;" vertex="1" parent="qvRgg_N5Kb894ZcYYOUU-40">
          <mxGeometry x="10" y="30" width="130" height="60" as="geometry" />
        </mxCell>
        <mxCell id="qvRgg_N5Kb894ZcYYOUU-67" style="edgeStyle=orthogonalEdgeStyle;rounded=0;orthogonalLoop=1;jettySize=auto;html=1;exitX=0;exitY=0.5;exitDx=0;exitDy=0;shape=arrow;" edge="1" parent="WIyWlLk6GJQsqaUBKTNV-1" source="qvRgg_N5Kb894ZcYYOUU-49" target="qvRgg_N5Kb894ZcYYOUU-65">
          <mxGeometry relative="1" as="geometry" />
        </mxCell>
        <mxCell id="qvRgg_N5Kb894ZcYYOUU-49" value="AbstractOutputProvider" style="swimlane;whiteSpace=wrap;html=1;" vertex="1" parent="WIyWlLk6GJQsqaUBKTNV-1">
          <mxGeometry x="-2710" y="-160" width="200" height="160" as="geometry" />
        </mxCell>
        <mxCell id="qvRgg_N5Kb894ZcYYOUU-55" style="edgeStyle=orthogonalEdgeStyle;rounded=0;orthogonalLoop=1;jettySize=auto;html=1;exitX=0;exitY=0.5;exitDx=0;exitDy=0;entryX=1;entryY=0.575;entryDx=0;entryDy=0;dashed=1;entryPerimeter=0;" edge="1" parent="WIyWlLk6GJQsqaUBKTNV-1" source="qvRgg_N5Kb894ZcYYOUU-48" target="qvRgg_N5Kb894ZcYYOUU-80">
          <mxGeometry relative="1" as="geometry">
            <mxPoint x="-3025" y="170" as="targetPoint" />
          </mxGeometry>
        </mxCell>
        <mxCell id="qvRgg_N5Kb894ZcYYOUU-57" style="edgeStyle=orthogonalEdgeStyle;rounded=0;orthogonalLoop=1;jettySize=auto;html=1;exitX=0.5;exitY=1;exitDx=0;exitDy=0;entryX=0.5;entryY=0;entryDx=0;entryDy=0;dashed=1;" edge="1" parent="WIyWlLk6GJQsqaUBKTNV-1" source="qvRgg_N5Kb894ZcYYOUU-30" target="qvRgg_N5Kb894ZcYYOUU-81">
          <mxGeometry relative="1" as="geometry">
            <mxPoint x="-2035" y="130" as="targetPoint" />
          </mxGeometry>
        </mxCell>
        <mxCell id="qvRgg_N5Kb894ZcYYOUU-65" value="" style="shape=sumEllipse;perimeter=ellipsePerimeter;whiteSpace=wrap;html=1;backgroundOutline=1;" vertex="1" parent="WIyWlLk6GJQsqaUBKTNV-1">
          <mxGeometry x="-2910" y="-140" width="120" height="120" as="geometry" />
        </mxCell>
        <mxCell id="qvRgg_N5Kb894ZcYYOUU-68" style="edgeStyle=orthogonalEdgeStyle;rounded=0;orthogonalLoop=1;jettySize=auto;html=1;exitX=1;exitY=0.5;exitDx=0;exitDy=0;entryX=0;entryY=0.5;entryDx=0;entryDy=0;dashed=1;" edge="1" parent="WIyWlLk6GJQsqaUBKTNV-1" source="qvRgg_N5Kb894ZcYYOUU-50" target="qvRgg_N5Kb894ZcYYOUU-65">
          <mxGeometry relative="1" as="geometry" />
        </mxCell>
        <mxCell id="qvRgg_N5Kb894ZcYYOUU-86" style="edgeStyle=orthogonalEdgeStyle;rounded=0;orthogonalLoop=1;jettySize=auto;html=1;exitX=1;exitY=0.5;exitDx=0;exitDy=0;shape=arrow;" edge="1" parent="WIyWlLk6GJQsqaUBKTNV-1" source="qvRgg_N5Kb894ZcYYOUU-69" target="qvRgg_N5Kb894ZcYYOUU-85">
          <mxGeometry relative="1" as="geometry" />
        </mxCell>
        <mxCell id="qvRgg_N5Kb894ZcYYOUU-69" value="Job" style="swimlane;whiteSpace=wrap;html=1;" vertex="1" parent="WIyWlLk6GJQsqaUBKTNV-1">
          <mxGeometry x="-3494" y="441" width="204" height="159" as="geometry" />
        </mxCell>
        <mxCell id="qvRgg_N5Kb894ZcYYOUU-73" style="edgeStyle=orthogonalEdgeStyle;rounded=0;orthogonalLoop=1;jettySize=auto;html=1;exitX=0.5;exitY=1;exitDx=0;exitDy=0;entryX=0.5;entryY=0;entryDx=0;entryDy=0;" edge="1" parent="WIyWlLk6GJQsqaUBKTNV-1" source="qvRgg_N5Kb894ZcYYOUU-70" target="qvRgg_N5Kb894ZcYYOUU-71">
          <mxGeometry relative="1" as="geometry" />
        </mxCell>
        <mxCell id="qvRgg_N5Kb894ZcYYOUU-70" value="IAdapter" style="swimlane;whiteSpace=wrap;html=1;" vertex="1" parent="WIyWlLk6GJQsqaUBKTNV-1">
          <mxGeometry x="-1550" y="-330" width="210" height="105" as="geometry" />
        </mxCell>
        <mxCell id="qvRgg_N5Kb894ZcYYOUU-76" style="edgeStyle=orthogonalEdgeStyle;rounded=0;orthogonalLoop=1;jettySize=auto;html=1;entryX=1;entryY=0.5;entryDx=0;entryDy=0;shape=arrow;" edge="1" parent="WIyWlLk6GJQsqaUBKTNV-1" target="qvRgg_N5Kb894ZcYYOUU-79">
          <mxGeometry relative="1" as="geometry">
            <mxPoint x="-1550" y="-10" as="sourcePoint" />
            <mxPoint x="-1445" y="210" as="targetPoint" />
          </mxGeometry>
        </mxCell>
        <mxCell id="qvRgg_N5Kb894ZcYYOUU-71" value="Adapter" style="swimlane;whiteSpace=wrap;html=1;" vertex="1" parent="WIyWlLk6GJQsqaUBKTNV-1">
          <mxGeometry x="-1550" y="-65" width="210" height="100" as="geometry" />
        </mxCell>
        <mxCell id="qvRgg_N5Kb894ZcYYOUU-72" value="Реализация способа&amp;nbsp;&lt;span style=&quot;background-color: initial;&quot;&gt;получения&amp;nbsp;&lt;/span&gt;&lt;div&gt;&lt;span style=&quot;background-color: initial;&quot;&gt;информации&amp;nbsp;&lt;/span&gt;&lt;span style=&quot;background-color: initial;&quot;&gt;из специфического&amp;nbsp;&lt;/span&gt;&lt;/div&gt;&lt;div style=&quot;&quot;&gt;&lt;span style=&quot;background-color: initial;&quot;&gt;набора данных реального клиента&lt;/span&gt;&lt;/div&gt;" style="text;align=left;verticalAlign=middle;resizable=0;points=[];autosize=1;strokeColor=none;fillColor=none;html=1;" vertex="1" parent="qvRgg_N5Kb894ZcYYOUU-71">
          <mxGeometry x="10" y="25" width="220" height="60" as="geometry" />
        </mxCell>
        <mxCell id="qvRgg_N5Kb894ZcYYOUU-79" value="&lt;span style=&quot;font-weight: 700;&quot;&gt;Adapter&lt;/span&gt;" style="ellipse;whiteSpace=wrap;html=1;aspect=fixed;" vertex="1" parent="WIyWlLk6GJQsqaUBKTNV-1">
          <mxGeometry x="-1817.5" y="-75" width="135" height="135" as="geometry" />
        </mxCell>
        <mxCell id="qvRgg_N5Kb894ZcYYOUU-80" value="InputProvider" style="ellipse;whiteSpace=wrap;html=1;aspect=fixed;" vertex="1" parent="WIyWlLk6GJQsqaUBKTNV-1">
          <mxGeometry x="-3132.5" y="106" width="135" height="135" as="geometry" />
        </mxCell>
        <mxCell id="qvRgg_N5Kb894ZcYYOUU-81" value="&lt;span style=&quot;font-weight: 700; text-wrap: nowrap;&quot;&gt;Project&lt;/span&gt;" style="ellipse;whiteSpace=wrap;html=1;aspect=fixed;" vertex="1" parent="WIyWlLk6GJQsqaUBKTNV-1">
          <mxGeometry x="-2098.5" y="119.5" width="127" height="127" as="geometry" />
        </mxCell>
        <mxCell id="qvRgg_N5Kb894ZcYYOUU-82" value="Product :&amp;nbsp;Tree" style="swimlane;whiteSpace=wrap;html=1;" vertex="1" parent="WIyWlLk6GJQsqaUBKTNV-1">
          <mxGeometry x="-2945" y="740" width="420" height="307" as="geometry" />
        </mxCell>
        <mxCell id="qvRgg_N5Kb894ZcYYOUU-83" value="LayoutSpace" style="swimlane;whiteSpace=wrap;html=1;" vertex="1" parent="qvRgg_N5Kb894ZcYYOUU-82">
          <mxGeometry x="20" y="127" width="150" height="120" as="geometry" />
        </mxCell>
        <mxCell id="qvRgg_N5Kb894ZcYYOUU-84" value="Owner" style="rounded=1;whiteSpace=wrap;html=1;" vertex="1" parent="qvRgg_N5Kb894ZcYYOUU-82">
          <mxGeometry x="20" y="38" width="150" height="60" as="geometry" />
        </mxCell>
        <mxCell id="qvRgg_N5Kb894ZcYYOUU-85" value="&lt;span style=&quot;font-weight: 700;&quot;&gt;Job&lt;/span&gt;" style="ellipse;whiteSpace=wrap;html=1;aspect=fixed;" vertex="1" parent="WIyWlLk6GJQsqaUBKTNV-1">
          <mxGeometry x="-3179" y="461.5" width="113" height="113" as="geometry" />
        </mxCell>
        <mxCell id="qvRgg_N5Kb894ZcYYOUU-87" style="edgeStyle=orthogonalEdgeStyle;rounded=0;orthogonalLoop=1;jettySize=auto;html=1;exitX=0;exitY=0.5;exitDx=0;exitDy=0;entryX=1;entryY=0.5;entryDx=0;entryDy=0;dashed=1;" edge="1" parent="WIyWlLk6GJQsqaUBKTNV-1" source="qvRgg_N5Kb894ZcYYOUU-84" target="qvRgg_N5Kb894ZcYYOUU-85">
          <mxGeometry relative="1" as="geometry" />
        </mxCell>
        <mxCell id="qvRgg_N5Kb894ZcYYOUU-94" style="edgeStyle=orthogonalEdgeStyle;rounded=0;orthogonalLoop=1;jettySize=auto;html=1;exitX=0.5;exitY=1;exitDx=0;exitDy=0;entryX=0.5;entryY=0;entryDx=0;entryDy=0;dashed=1;" edge="1" parent="WIyWlLk6GJQsqaUBKTNV-1" source="qvRgg_N5Kb894ZcYYOUU-90" target="qvRgg_N5Kb894ZcYYOUU-79">
          <mxGeometry relative="1" as="geometry" />
        </mxCell>
        <mxCell id="qvRgg_N5Kb894ZcYYOUU-96" value="" style="shape=cylinder3;whiteSpace=wrap;html=1;boundedLbl=1;backgroundOutline=1;size=15;" vertex="1" parent="WIyWlLk6GJQsqaUBKTNV-1">
          <mxGeometry x="-3450" y="200" width="100" height="150" as="geometry" />
        </mxCell>
      </root>
    </mxGraphModel>
  </diagram>
</mxfile>
